<?xml version="1.0" standalone="no"?>
<!DOCTYPE svg PUBLIC "-//W3C//DTD SVG 20010904//EN"
 "http://www.w3.org/TR/2001/REC-SVG-20010904/DTD/svg10.dtd">
<svg version="1.0" xmlns="http://www.w3.org/2000/svg"
 width="700.000000pt" height="700.000000pt" viewBox="0 0 700.000000 700.000000"
 preserveAspectRatio="xMidYMid meet">
<metadata>
Created by potrace 1.14, written by Peter Selinger 2001-2017
</metadata>
<g transform="translate(0.000000,700.000000) scale(0.100000,-0.100000)"
fill="#000000" stroke="none">
<path d="M830 3985 c0 -118 -4 -215 -8 -215 -5 0 -17 9 -28 21 -46 51 -164 91
-269 91 -142 0 -243 -45 -334 -148 -44 -51 -100 -157 -108 -206 -2 -17 -8 -41
-13 -53 -5 -12 -7 -83 -6 -156 2 -108 7 -147 25 -199 55 -158 157 -267 295
-313 35 -12 76 -16 155 -14 125 4 190 28 265 97 l46 43 0 -59 0 -59 75 0 75 0
0 182 c0 101 0 293 0 428 0 135 0 364 0 510 l0 265 -85 0 -85 0 0 -215z m-200
-269 c92 -20 172 -112 201 -231 18 -75 19 -202 4 -278 -38 -179 -144 -269
-309 -261 -142 7 -244 108 -275 274 -13 74 -7 223 13 285 53 170 189 248 366
211z"/>
<path d="M6770 3985 c0 -118 -2 -215 -5 -215 -3 0 -16 9 -28 21 -59 55 -169
91 -280 91 -284 -2 -473 -247 -454 -588 14 -252 137 -433 332 -489 44 -13 83
-16 157 -13 84 4 106 9 162 37 36 17 80 48 98 67 l33 35 5 -58 5 -58 73 0 72
0 0 50 c1 28 2 339 3 693 l2 642 -87 0 -88 0 0 -215z m-157 -283 c117 -53 181
-201 173 -397 -6 -131 -36 -216 -101 -281 -54 -54 -101 -74 -191 -78 -94 -5
-187 39 -239 114 -15 21 -37 71 -50 111 -19 61 -22 90 -20 178 5 162 49 270
135 327 80 53 207 64 293 26z"/>
<path d="M5485 4176 c-86 -27 -169 -97 -205 -173 -25 -54 -25 -78 1 -104 33
-33 79 -23 105 25 50 89 107 127 190 128 73 1 136 -38 177 -107 16 -27 34 -53
41 -57 21 -14 63 -8 79 10 53 59 -36 203 -161 259 -64 30 -164 38 -227 19z"/>
<path d="M1787 3884 c-1 -1 -23 -5 -49 -8 -140 -19 -270 -109 -337 -235 -88
-166 -95 -417 -15 -585 55 -117 178 -218 308 -252 65 -17 257 -12 306 8 119
48 200 111 252 194 44 71 45 70 -44 99 -44 15 -81 25 -82 23 -1 -2 -17 -23
-34 -48 -62 -88 -157 -131 -279 -126 -91 3 -135 20 -193 72 -58 53 -92 126
-105 228 l-5 33 373 1 c204 0 385 1 400 1 27 1 28 2 26 54 -11 327 -178 525
-457 539 -35 2 -64 3 -65 2z m161 -176 c99 -37 158 -122 177 -253 l4 -30 -297
0 c-163 0 -302 4 -309 8 -23 14 28 144 79 203 76 87 223 117 346 72z"/>
<path d="M3067 3884 c-1 -1 -29 -4 -63 -7 -199 -19 -357 -168 -408 -387 -22
-92 -16 -286 11 -360 62 -172 168 -275 330 -323 67 -20 225 -20 294 0 130 38
260 145 298 245 9 25 8 26 -71 53 -66 22 -82 25 -89 14 -5 -8 -9 -17 -9 -20 0
-17 -85 -91 -131 -115 -48 -25 -64 -28 -149 -28 -108 1 -147 14 -211 71 -58
52 -87 116 -103 224 l-6 37 343 0 c188 1 368 1 401 1 l59 1 -7 96 c-22 302
-179 476 -449 497 -20 2 -38 3 -40 1z m127 -173 c92 -29 160 -122 180 -246 l7
-40 -307 0 -306 0 6 43 c7 53 47 136 84 175 74 78 215 106 336 68z"/>
<path d="M3762 3852 c-6 -2 -4 -18 3 -40 12 -34 92 -294 135 -437 10 -33 41
-136 70 -230 29 -93 61 -201 73 -240 11 -38 24 -75 28 -80 6 -8 104 -12 140
-6 4 1 10 13 13 29 4 15 37 119 72 232 127 396 146 455 156 488 11 35 16 37
22 6 3 -11 27 -90 56 -177 28 -87 53 -166 55 -175 15 -61 128 -398 136 -402
11 -7 126 -6 134 1 4 5 178 563 220 709 7 25 32 105 54 179 25 83 37 137 31
141 -5 3 -42 6 -82 5 l-73 -1 -63 -204 c-64 -206 -118 -384 -151 -495 l-18
-60 -32 105 c-30 98 -50 161 -151 490 -21 69 -41 134 -44 146 -6 18 -13 20
-81 19 -41 -1 -76 -3 -78 -6 -2 -2 -29 -89 -61 -194 -60 -200 -122 -399 -153
-500 l-19 -60 -16 55 c-18 62 -67 224 -126 415 -22 72 -50 165 -63 208 -12 42
-25 78 -28 78 -14 3 -150 4 -159 1z"/>
<path d="M5485 3850 c-6 -10 -3 -1030 3 -1031 55 -5 143 -4 152 1 9 6 12 139
12 514 1 279 -2 510 -6 514 -8 7 -156 10 -161 2z"/>
</g>
</svg>
