<svg width="361" height="120" viewBox="0 0 361 120" fill="none" xmlns="http://www.w3.org/2000/svg">
<g clip-path="url(#clip0_1543_814)">
<path d="M333.008 89.1355C343.717 89.1355 350.927 81.5013 350.927 70.8982C350.927 60.2951 343.717 52.6608 333.008 52.6608C322.193 52.6608 314.982 60.2951 314.982 70.8982C314.982 81.5013 322.193 89.1355 333.008 89.1355ZM361 21.8058V70.474C361 87.333 349.549 98.4662 333.008 98.4662C316.467 98.4662 304.804 86.8028 304.804 70.8982C304.804 53.085 317.739 43.3301 331.205 43.3301C340.112 43.3301 347.11 47.3593 350.715 53.6151H350.927V21.8058H361Z" fill="white"/>
<path d="M294.78 97.0878H284.707V44.7085H294.78V97.0878Z" fill="white"/>
<path d="M227.289 44.7085H237.362V75.0334C237.362 84.5762 242.77 89.1355 249.874 89.1355C257.19 89.1355 262.385 84.7882 262.385 75.0334V44.7085H272.458V75.0334C272.458 91.0441 263.128 98.4662 250.828 98.4662C242.77 98.4662 236.09 94.8612 232.485 88.2872H232.273C228.668 94.8612 222.094 98.4662 213.929 98.4662C201.63 98.4662 192.299 91.0441 192.299 75.0334V44.7085H202.372V75.0334C202.372 84.7882 207.567 89.1355 214.884 89.1355C221.988 89.1355 227.289 84.5762 227.289 75.0334V44.7085Z" fill="white"/>
<path d="M184.04 74.6093H138.447V74.8213C139.931 83.5159 146.505 89.1355 156.048 89.1355C162.834 89.1355 167.605 87.0149 170.68 82.4555H181.813C177.784 92.2104 168.241 98.4662 156.048 98.4662C139.507 98.4662 127.844 86.8028 127.844 70.8982C127.844 54.9935 139.507 43.3301 156.048 43.3301C172.589 43.3301 184.04 54.9935 184.04 70.8982V74.6093ZM156.048 52.6608C147.141 52.6608 140.779 57.6443 138.765 65.3846V65.5966H173.437V65.3846C171.422 57.6443 164.955 52.6608 156.048 52.6608Z" fill="white"/>
<path d="M121.705 74.6093H76.1122V74.8213C77.5966 83.5159 84.1705 89.1355 93.7133 89.1355C100.499 89.1355 105.271 87.0149 108.346 82.4555H119.479C115.45 92.2104 105.907 98.4662 93.7133 98.4662C77.1725 98.4662 65.5091 86.8028 65.5091 70.8982C65.5091 54.9935 77.1725 43.3301 93.7133 43.3301C110.254 43.3301 121.705 54.9935 121.705 70.8982V74.6093ZM93.7133 52.6608C84.8067 52.6608 78.4448 57.6443 76.4303 65.3846V65.5966H111.102V65.3846C109.088 57.6443 102.62 52.6608 93.7133 52.6608Z" fill="white"/>
<path d="M29.2042 89.1355C39.9134 89.1355 47.1235 81.5013 47.1235 70.8982C47.1235 60.2951 39.9134 52.6608 29.2042 52.6608C18.3891 52.6608 11.179 60.2951 11.179 70.8982C11.179 81.5013 18.3891 89.1355 29.2042 89.1355ZM57.1964 21.8058V70.474C57.1964 87.333 45.7451 98.4662 29.2042 98.4662C12.6634 98.4662 1 86.8028 1 70.8982C1 53.085 13.9358 43.3301 27.4017 43.3301C36.3083 43.3301 43.3064 47.3593 46.9114 53.6151H47.1235V21.8058H57.1964Z" fill="white"/>
<path d="M289.233 31.5564C293.765 31.5564 297.63 34.4514 299.063 38.5038C299.702 40.3127 301.687 41.2609 303.496 40.6215C305.305 39.9821 306.253 37.9974 305.613 36.1885C303.23 29.447 296.801 24.6086 289.233 24.6086C281.665 24.6086 275.236 29.447 272.853 36.1885C272.214 37.9974 273.162 39.9821 274.971 40.6215C276.78 41.2609 278.764 40.3127 279.404 38.5038C280.836 34.4514 284.701 31.5564 289.233 31.5564Z" fill="#6E63E5"/>
</g>
<defs>
<clipPath id="clip0_1543_814">
<rect width="360" height="120" fill="white" transform="translate(0.5)"/>
</clipPath>
</defs>
</svg>
